<mxfile host="app.diagrams.net" modified="2023-12-06T13:21:59.763Z" agent="Mozilla/5.0 (Windows NT 10.0; Win64; x64; rv:120.0) Gecko/20100101 Firefox/120.0" version="22.1.5" etag="gNEAp1V2KtXrTi8U3Nsn" type="github">
  <diagram name="PÃ¡gina-1" id="9hqsNV1yNMjy8_2TvRH3">
    <mxGraphModel>
      <root>
        <mxCell id="0" />
        <mxCell id="1" parent="0" />
      </root>
    </mxGraphModel>
  </diagram>
</mxfile>
